<svg xmlns="http://www.w3.org/2000/svg" version="1.1" xmlns:xlink="http://www.w3.org/1999/xlink" xmlns:svgjs="http://svgjs.com/svgjs" width="1920" height="1080" preserveAspectRatio="none" viewBox="0 0 1920 1080"><g mask="url(&quot;#SvgjsMask1027&quot;)" fill="none"><rect width="1920" height="1080" x="0" y="0" fill="#0e2a47"></rect><path d="M1473.0401891337199 627.7418581667769L1625.8842434706464 520.9362356059361 1479.3819993896107 449.4823168695849z" fill="rgba(28, 83, 142, 0.4)" class="triangle-float1"></path><path d="M20.307,162.008C73.227,166.795,135.069,160.97,161.339,114.782C187.454,68.867,156.223,15.874,129.255,-29.545C103.104,-73.588,71.494,-120.841,20.307,-122.744C-33.258,-124.736,-80.554,-86.58,-103.64,-38.204C-124.046,4.556,-107.459,52.438,-82.519,92.723C-59.202,130.387,-23.81,158.017,20.307,162.008" fill="rgba(28, 83, 142, 0.4)" class="triangle-float2"></path><path d="M-78.68 547.87 a304.9 304.9 0 1 0 609.8 0 a304.9 304.9 0 1 0 -609.8 0z" fill="rgba(28, 83, 142, 0.4)" class="triangle-float3"></path><path d="M711.09 238.32 a274.65 274.65 0 1 0 549.3 0 a274.65 274.65 0 1 0 -549.3 0z" fill="rgba(28, 83, 142, 0.4)" class="triangle-float3"></path><path d="M1440.750137411207 858.6287017279742L1519.1089259220043 1052.5735090206763 1770.8467426056586 838.0629226081293z" fill="rgba(28, 83, 142, 0.4)" class="triangle-float1"></path><path d="M1095.478375411895 733.4528241638991L990.8487639355171 429.5863683872077 686.9823081588258 534.2159798635855 791.6119196352037 838.082435640277z" fill="rgba(28, 83, 142, 0.4)" class="triangle-float3"></path><path d="M1739.9021311935198 528.414969917327L1589.1076868082007 382.79446767115473 1446.074155631602 681.7963853722197z" fill="rgba(28, 83, 142, 0.4)" class="triangle-float2"></path><path d="M778.0150602225289 981.074267751254L627.5605190203487 854.5833790482103 594.7745979746087 1023.2523208313571z" fill="rgba(28, 83, 142, 0.4)" class="triangle-float2"></path><path d="M1178.11 758.79 a260.41 260.41 0 1 0 520.82 0 a260.41 260.41 0 1 0 -520.82 0z" fill="rgba(28, 83, 142, 0.4)" class="triangle-float3"></path><path d="M1490.09 732.07 a225.39 225.39 0 1 0 450.78 0 a225.39 225.39 0 1 0 -450.78 0z" fill="rgba(28, 83, 142, 0.4)" class="triangle-float3"></path><path d="M939.66 1.85 a215.43 215.43 0 1 0 430.86 0 a215.43 215.43 0 1 0 -430.86 0z" fill="rgba(28, 83, 142, 0.4)" class="triangle-float1"></path><path d="M981.982,997.123C1029.04,997.189,1074.117,973.544,1096.582,932.194C1118.164,892.469,1109.472,844.605,1085.752,806.118C1063.295,769.681,1024.752,747.874,981.982,746.25C935.903,744.5,887.741,758.394,863.602,797.683C838.492,838.552,843.451,890.627,867.934,931.875C891.894,972.242,935.04,997.058,981.982,997.123" fill="rgba(28, 83, 142, 0.4)" class="triangle-float3"></path><path d="M1628.09,749.804C1697.597,753.279,1770.646,728.14,1804.592,667.387C1837.921,607.739,1817.933,534.621,1780.125,477.706C1746.522,427.122,1688.797,403.293,1628.09,401.689C1563.872,399.992,1494.309,414.074,1461.47,469.286C1428.09,525.408,1446.374,595.004,1479.72,651.145C1512.228,705.875,1564.512,746.625,1628.09,749.804" fill="rgba(28, 83, 142, 0.4)" class="triangle-float3"></path><path d="M1649.757,647.584C1698.697,647.426,1756.547,653.261,1781.871,611.383C1807.637,568.775,1781.386,516.528,1754.258,474.773C1730.124,437.626,1694.041,409.174,1649.757,408.033C1603.479,406.841,1560.836,430.397,1535.492,469.136C1507.248,512.308,1488.341,568.792,1516.161,612.238C1542.785,653.817,1600.385,647.743,1649.757,647.584" fill="rgba(28, 83, 142, 0.4)" class="triangle-float2"></path><path d="M1603.31 1006.02 a293.39 293.39 0 1 0 586.78 0 a293.39 293.39 0 1 0 -586.78 0z" fill="rgba(28, 83, 142, 0.4)" class="triangle-float2"></path><path d="M1511.42,794.011C1577.494,792.289,1641.667,762.785,1673.54,704.881C1704.434,648.755,1690.417,581.913,1658.858,526.158C1626.726,469.391,1576.65,418.702,1511.42,418.462C1445.87,418.221,1395.853,468.88,1362.088,525.065C1326.984,583.476,1300.889,654.151,1333.971,713.731C1367.749,774.565,1441.862,795.824,1511.42,794.011" fill="rgba(28, 83, 142, 0.4)" class="triangle-float3"></path></g><defs><mask id="SvgjsMask1027"><rect width="1920" height="1080" fill="#ffffff"></rect></mask><style>
            @keyframes float1 {
                0%{transform: translate(0, 0)}
                50%{transform: translate(-10px, 0)}
                100%{transform: translate(0, 0)}
            }

            .triangle-float1 {
                animation: float1 5s infinite;
            }

            @keyframes float2 {
                0%{transform: translate(0, 0)}
                50%{transform: translate(-5px, -5px)}
                100%{transform: translate(0, 0)}
            }

            .triangle-float2 {
                animation: float2 4s infinite;
            }

            @keyframes float3 {
                0%{transform: translate(0, 0)}
                50%{transform: translate(0, -10px)}
                100%{transform: translate(0, 0)}
            }

            .triangle-float3 {
                animation: float3 6s infinite;
            }
        </style></defs></svg>